<?xml version="1.0" standalone="no"?>
<!DOCTYPE svg PUBLIC "-//W3C//DTD SVG 1.0//EN" "http://www.w3.org/TR/2001/REC-SVG-20010904/DTD/svg10.dtd">
<svg xmlns="http://www.w3.org/2000/svg" xmlns:xlink="http://www.w3.org/1999/xlink" id="body_1" width="24" height="24">

<g transform="matrix(0.8000001 0 0 0.8000001 0 0)">
	<g transform="matrix(0.234375 0 0 0.234375 0 0)">
		<g transform="matrix(1 0 0 1 0 80)">
		</g>
		<g transform="matrix(4.997586 0 0 4.997586 -56.023052 -55.69933)">
			<g>
				<g>
                    <path d="M21.863 14.984C 21.863 15.812 21.191 16.484001 20.363 16.484001C 19.535002 16.484001 18.863 15.812001 18.863 14.984001C 18.863 14.156001 19.535002 13.484001 20.363 13.484001C 21.191 13.484001 21.863 14.156001 21.863 14.984001" stroke="none" fill="#F9F9F9" fill-rule="nonzero" />
                    <path d="M23.855 12C 22.866999 12.004 21.921 12.09 21.088999 12.234C 18.64 12.6640005 18.193998 13.558001 18.193998 15.211L18.193998 15.211L18.193998 17.395L23.982998 17.395L23.982998 18.122L16.021997 18.122C 14.337997 18.122 12.865997 19.122 12.404997 21.024C 11.873997 23.204 11.845997 24.567 12.404997 26.84C 12.814997 28.535 13.795997 29.742 15.478996 29.742L15.478996 29.742L17.181995 29.742L17.181995 26.844C 17.181995 24.957 18.837996 23.301 20.802996 23.301L20.802996 23.301L26.862995 23.301C 28.471994 23.301 29.995995 21.988 29.995995 20.391L29.995995 20.391L29.995995 15.223001C 29.995995 13.672001 28.436995 12.504001 26.862995 12.246C 25.870995 12.082001 24.839994 12.008 23.852995 12.012M20.723995 13.754C 21.321995 13.754 21.809996 14.245999 21.809996 14.851999C 21.809996 15.4539995 21.321995 15.938 20.723995 15.938C 20.121996 15.938 19.633995 15.4539995 19.633995 14.851999C 19.633995 14.247 20.117994 13.754 20.723995 13.754" stroke="none" fill="#4586B9" fill-rule="nonzero" />
                    <path d="M28.867 32.984C 28.867 33.812 28.195 34.484 27.367 34.484C 26.535 34.484 25.863 33.812 25.863 32.984C 25.863 32.156002 26.535002 31.484001 27.367 31.484001C 28.195 31.484001 28.867 32.156002 28.867 32.984" stroke="none" fill="#F9F9F9" fill-rule="nonzero" />
                    <path d="M30.82 18.12L30.82 20.663C 30.82 22.632 29.129 24.058 27.203 24.058L27.203 24.058L20.850998 24.058C 19.268997 24.058 17.955997 25.636 17.955997 27.203001L17.955997 27.203001L17.955997 32.656002C 17.955997 34.207 19.318998 35.117 20.850998 35.562C 22.682999 36.093 24.678997 36.195 26.870998 35.562C 28.328 35.144 29.765999 34.304 29.765999 32.656002L29.765999 32.656002L29.765999 30.472002L23.984999 30.472002L23.984999 29.745003L32.665 29.745003C 34.345 29.745003 34.974 28.581003 35.56 26.843002C 36.165 25.050003 36.134003 23.323002 35.56 21.027002C 35.142002 19.367002 34.349003 18.125002 32.665 18.125002M27.239 31.93C 27.837 31.93 28.325 32.414 28.325 33.016C 28.325 33.618 27.841002 34.114 27.239 34.114C 26.637001 34.114 26.149 33.618 26.149 33.016C 26.149 32.413998 26.637001 31.929998 27.239 31.929998" stroke="none" fill="#FFE634" fill-rule="nonzero" />
				</g>
			</g>
		</g>
	</g>
</g>
</svg>