<?xml version="1.0" encoding="UTF-8"?>
<svg xmlns="http://www.w3.org/2000/svg" xmlns:xlink="http://www.w3.org/1999/xlink" width="24px" height="24px" viewBox="0 0 24 24" version="1.1">
<g id="surface1">
<path style=" stroke:none;fill-rule:nonzero;fill:rgb(0%,0%,0%);fill-opacity:1;" d="M 11.699219 1.539062 C 11.53125 1.59375 3.332031 6.15625 2.960938 6.410156 C 2.847656 6.488281 2.714844 6.652344 2.628906 6.8125 L 2.496094 7.082031 L 2.496094 11.96875 C 2.5 17.390625 2.484375 17.140625 2.851562 17.457031 C 3.152344 17.722656 11.585938 22.441406 11.828125 22.472656 C 11.9375 22.496094 12.113281 22.488281 12.230469 22.464844 C 12.460938 22.40625 20.933594 17.675781 21.152344 17.476562 C 21.238281 17.398438 21.347656 17.242188 21.40625 17.121094 C 21.5 16.921875 21.503906 16.667969 21.503906 12 C 21.503906 7.363281 21.5 7.078125 21.40625 6.878906 C 21.347656 6.757812 21.230469 6.589844 21.128906 6.503906 C 20.984375 6.375 13.257812 2.011719 12.496094 1.625 C 12.273438 1.511719 11.914062 1.472656 11.699219 1.539062 Z M 13.417969 5.121094 C 14.328125 5.328125 15.152344 5.671875 15.902344 6.171875 C 16.445312 6.523438 17.425781 7.496094 17.777344 8.027344 L 18.050781 8.4375 L 16.527344 9.316406 L 15 10.1875 L 14.894531 10.042969 C 14.070312 8.953125 12.925781 8.425781 11.613281 8.550781 C 10.328125 8.675781 9.152344 9.601562 8.722656 10.832031 C 8.390625 11.808594 8.503906 12.96875 9.039062 13.835938 C 9.273438 14.222656 9.796875 14.738281 10.207031 14.992188 C 10.386719 15.101562 10.730469 15.25 10.964844 15.328125 C 11.574219 15.53125 12.425781 15.53125 13.035156 15.328125 C 13.765625 15.089844 14.484375 14.566406 14.855469 14.003906 C 14.925781 13.894531 15.007812 13.808594 15.042969 13.808594 C 15.089844 13.808594 17.980469 15.371094 18.050781 15.433594 C 18.09375 15.472656 17.84375 15.882812 17.496094 16.328125 C 15.375 19.050781 11.503906 19.796875 8.527344 18.074219 C 6.605469 16.960938 5.351562 15.101562 5.035156 12.90625 C 4.964844 12.363281 5.007812 11.113281 5.117188 10.59375 C 5.417969 9.261719 6.003906 8.144531 6.925781 7.183594 C 8.015625 6.03125 9.300781 5.347656 10.882812 5.066406 C 11.417969 4.96875 12.898438 5.007812 13.417969 5.121094 Z M 13.417969 5.121094 "/>
</g>
</svg>
